<?xml version="1.0" standalone="no"?>
<!DOCTYPE svg PUBLIC "-//W3C//DTD SVG 20010904//EN"
 "http://www.w3.org/TR/2001/REC-SVG-20010904/DTD/svg10.dtd">
<svg version="1.0" xmlns="http://www.w3.org/2000/svg"
 width="512.000000pt" height="512.000000pt" viewBox="0 0 512.000000 512.000000"
 preserveAspectRatio="xMidYMid meet">
<metadata>
Created by potrace 1.14, written by Peter Selinger 2001-2017
</metadata>
<g transform="translate(0.000000,512.000000) scale(0.100000,-0.100000)"
fill="#000000" stroke="none">
<path d="M3113 4375 c-95 -13 -275 -56 -312 -75 -9 -5 -47 -23 -86 -40 -238
-107 -442 -306 -564 -553 -44 -89 -111 -269 -111 -301 -1 -31 -15 -35 -65 -20
-319 95 -654 15 -867 -208 -143 -149 -218 -344 -223 -575 l-3 -123 -65 -33
c-238 -125 -402 -330 -469 -587 -32 -125 -32 -331 2 -455 66 -241 242 -460
461 -570 82 -42 198 -80 279 -91 52 -7 1204 -14 1225 -7 11 4 14 1007 3 1018
-4 4 -71 -16 -149 -45 -181 -66 -220 -67 -284 -9 -30 28 -55 84 -55 125 0 67
22 99 155 229 339 332 428 416 463 439 73 46 168 41 242 -13 33 -24 137 -124
446 -427 114 -113 132 -135 144 -178 30 -111 -42 -216 -149 -218 -20 0 -99 22
-179 52 -78 28 -145 49 -149 47 -6 -4 -10 -989 -4 -1017 2 -12 1196 -3 1258 9
353 68 626 324 719 676 27 104 25 331 -5 440 -45 167 -149 339 -271 446 -51
45 -192 141 -221 151 -5 2 15 57 45 124 79 177 108 273 151 499 4 17 8 84 10
150 8 232 -43 430 -157 613 -234 376 -727 590 -1215 527z"/>
</g>
</svg>
